# xmcd
#
# Track frame offsets:
#	150
#	20311
#	37249
#	50952
#	71548
#	91442
#	115603
#	132247
#	150276
#	176308
#	193728
#	215778
#	242060
#	256917
#	274691
#
# Disc length: 3960 seconds
#
# Revision: 0
# Processed by: cddbd v1.5.2PL0 Copyright (c) Steve Scherf et al.
# Submitted via: dBpowerAMP V4.0
#
DISCID=d40f760f
DTITLE=Various Artist - Os Grandes Clássicos Românticos
DYEAR=1900
DGENRE=
TTITLE0=Conquest of Paradise
TTITLE1=Os Grandes Clássicos Românticos - Luzes da Ribalta
TTITLE2=Os Grandes Clássicos Românticos - Balada para Adeline
TTITLE3=Os Grandes Clássicos Românticos - I have a Dream
TTITLE4=Os Grandes Clássicos Românticos - Amigos para Sempre
TTITLE5=Os Grandes Clássicos Românticos - Concierto para una sola voz
TTITLE6=Os Grandes Clássicos Românticos - Unchained Melody
TTITLE7=Os Grandes Clássicos Românticos - Memory
TTITLE8=Os Grandes Clássicos Românticos - Tornero
TTITLE9=Os Grandes Clássicos Românticos - Without you
TTITLE10=Os Grandes Clássicos Românticos - Sacrifice
TTITLE11=Os Grandes Clássicos Românticos - Chiquitita
TTITLE12=Os Grandes Clássicos Românticos - Paloma blanca
TTITLE13=Os Grandes Clássicos Românticos - Dancing queen
TTITLE14=Os Grandes Clássicos Românticos - Gimme, gimme, gimme!
EXTD=
EXTT0=
EXTT1=
EXTT2=
EXTT3=
EXTT4=
EXTT5=
EXTT6=
EXTT7=
EXTT8=
EXTT9=
EXTT10=
EXTT11=
EXTT12=
EXTT13=
EXTT14=
PLAYORDER=
